<svg width="472" height="489" viewBox="0 0 472 489" fill="none" xmlns="http://www.w3.org/2000/svg">
<path fill-rule="evenodd" clip-rule="evenodd" d="M90.3 93.7447V95.9H61.18V94.22L64.82 94.08C72.66 93.8 71.68 89.74 64.96 72.66L58.8 56.98H26.04L22.96 65.24C20.3 72.52 19.32 78.68 19.32 84.56C19.32 89.88 20.58 93.8 26.46 94.08L29.4 94.22V95.9H0V94.22L1.54 94.08C7.7 93.52 10.78 91.14 20.72 65.38L45.78 0H47.18L76.58 71.68C83.7008 89.2364 85.9767 92.6888 90.3 93.7447ZM130.064 59.9H118.584V24.22C118.584 5.32001 118.164 3.36001 111.864 3.36001H108.784C101.924 3.36001 94.2244 4.62001 87.9244 24.36L86.3844 29.12H85.1244V1.54H163.524V29.12H162.264L160.724 24.36C154.284 4.62001 146.724 3.36001 139.864 3.36001H136.644C130.484 3.36001 130.064 5.32001 130.064 24.22V59.9ZM222.896 59.9H211.416V24.22C211.416 5.32001 210.996 3.36001 204.696 3.36001H201.616C194.756 3.36001 187.056 4.62001 180.756 24.36L179.216 29.12H177.956V1.54H256.356V29.12H255.096L253.556 24.36C247.116 4.62001 239.556 3.36001 232.696 3.36001H229.476C223.316 3.36001 222.896 5.32001 222.896 24.22V59.9ZM287.863 59.9H276.383V24.5C276.383 5.18001 275.123 3.64 268.123 3.36001L265.183 3.22V1.54H332.943V26.32H331.683L330.143 21.56C324.823 4.9 314.603 3.36001 301.583 3.36001H294.443C288.283 3.36001 287.863 5.60001 287.863 24.5V46.62H296.123C302.423 46.62 309.563 46.34 312.643 34.86L313.483 31.78H314.743V59.9H312.6C309.496 48.5774 302.394 48.3 296.123 48.3H287.863V59.9ZM365.296 59.9H363.196V23.24C363.196 5.18001 360.536 3.64 354.096 3.36001L351.576 3.22V1.54H373.416L422.119 59.9H407.104L365.296 10.78V59.9ZM90.3 417.619V465.267C82.9314 479.304 68.5208 488.9 48.44 488.9H3.64V487.22L6.58 487.08C13.58 486.8 14.84 485.26 14.84 465.94V417.5C14.84 398.18 13.58 396.64 6.58 396.36L3.64 396.22V394.54H48.3C68.9243 394.54 83.0723 403.888 90.3 417.619ZM440.476 59.9H438.376V33.6C438.376 19.32 433.476 3.78 424.656 3.36001L421.716 3.22V1.54H452.096V3.22L450.556 3.36001C443.276 3.92001 440.476 13.86 440.476 33.6V59.9ZM42.28 14.42L58.1 55.3H26.74L42.28 14.42ZM59.78 226.9V225.22L56.84 225.08C49.84 224.8 48.58 223.26 48.58 203.94V155.22C48.58 136.32 49 134.36 55.16 134.36H58.38C65.24 134.36 72.8 135.62 79.24 155.36L80.78 160.12H82.04V132.54H3.64V160.12H4.9L6.44 155.36C12.74 135.62 20.44 134.36 27.3 134.36H30.38C36.68 134.36 37.1 136.32 37.1 155.22V203.94C37.1 223.26 35.84 224.8 28.84 225.08L25.9 225.22V226.9H59.78ZM59.78 357.9V356.22L56.84 356.08C49.84 355.8 48.58 354.26 48.58 334.94V286.22C48.58 267.32 49 265.36 55.16 265.36H58.38C65.24 265.36 72.8 266.62 79.24 286.36L80.78 291.12H82.04V263.54H3.64V291.12H4.9L6.44 286.36C12.74 266.62 20.44 265.36 27.3 265.36H30.38C36.68 265.36 37.1 267.32 37.1 286.22V334.94C37.1 354.26 35.84 355.8 28.84 356.08L25.9 356.22V357.9H59.78ZM82.74 441.72C82.74 464.12 73.08 487.08 48.3 487.08H32.9C26.74 487.08 26.32 484.84 26.32 465.94V417.5C26.32 398.6 26.74 396.36 32.9 396.36H48.3C71.12 396.36 82.74 418.2 82.74 441.72Z" fill="black"/>
<path fill-rule="evenodd" clip-rule="evenodd" d="M118.584 59V71.94C118.584 91.26 117.324 92.8 110.324 93.08L107.384 93.22V94.9H141.264V93.22L138.324 93.08C131.324 92.8 130.064 91.26 130.064 71.94V59H118.584ZM211.416 59V71.94C211.416 91.26 210.156 92.8 203.156 93.08L200.216 93.22V94.9H234.096V93.22L231.156 93.08C224.156 92.8 222.896 91.26 222.896 71.94V59H211.416ZM276.383 59V71.94C276.383 91.26 275.123 92.8 268.123 93.08L265.183 93.22V94.9H335.743V65.92H334.483L332.943 70.68C326.503 90.42 318.663 93.08 304.383 93.08H294.443C288.283 93.08 287.863 90.84 287.863 71.94V59H276.383ZM312.627 59C312.632 59.02 312.638 59.04 312.643 59.06L313.483 62.14H314.743V59H312.627ZM363.196 59V61.58C363.196 82.58 360.116 92.52 353.116 93.08L351.576 93.22V94.9H381.956V93.22L379.016 93.08C370.476 92.66 365.296 76.7 365.296 61.58V59H363.196ZM407.189 59L438.936 96.3H440.476V59H438.376V78.38L422.203 59H407.189ZM93.38 93.22V94.9H90V92.6666C90.6927 92.8588 91.436 92.9795 92.26 93.08L93.38 93.22ZM90 416.059V464.829C93.8718 457.699 95.9 449.385 95.9 440.58C95.9 431.654 93.9116 423.237 90 416.059ZM124.747 225.9V224.22L121.807 224.08C114.807 223.8 113.547 222.26 113.547 202.94V154.5C113.547 135.18 114.807 133.64 121.807 133.36L124.747 133.22V131.54H90.8666V133.22L93.8066 133.36C100.807 133.64 102.067 135.18 102.067 154.5V202.94C102.067 222.26 100.807 223.8 93.8066 224.08L90.8666 224.22V225.9H124.747ZM181.266 129.72C210.666 129.72 227.046 153.1 227.046 178.58C227.046 204.06 210.666 227.72 181.266 227.72C151.726 227.72 135.486 204.06 135.486 178.58C135.486 153.1 151.726 129.72 181.266 129.72ZM181.266 225.9C205.906 225.9 213.746 203.08 213.746 178.72C213.746 154.64 205.906 131.54 181.266 131.54C156.486 131.54 148.646 154.36 148.646 178.72C148.646 202.8 156.486 225.9 181.266 225.9ZM326.043 227.3V163.6C326.043 143.86 328.842 133.92 336.122 133.36L337.663 133.22V131.54H307.283V133.22L310.223 133.36C319.043 133.78 323.943 149.32 323.943 163.6V209.38L258.982 131.54H237.143V133.22L239.663 133.36C246.103 133.64 248.762 135.18 248.762 153.24V192.58C248.762 213.58 245.683 223.52 238.683 224.08L237.143 224.22V225.9H267.522V224.22L264.582 224.08C256.042 223.66 250.863 207.7 250.863 192.58V140.78L324.503 227.3H326.043ZM184.527 309.58C184.527 284.1 168.147 260.72 138.747 260.72C109.207 260.72 92.9666 284.1 92.9666 309.58C92.9666 335.06 109.207 358.72 138.747 358.72C168.147 358.72 184.527 335.06 184.527 309.58ZM171.227 309.72C171.227 334.08 163.387 356.9 138.747 356.9C113.967 356.9 106.127 333.8 106.127 309.72C106.127 285.36 113.967 262.54 138.747 262.54C163.387 262.54 171.227 285.64 171.227 309.72ZM177.286 487.9V458.92H176.026L174.486 463.68C168.046 483.42 160.206 486.08 145.926 486.08H135.986C129.826 486.08 129.406 483.84 129.406 464.94V440.3H137.666C143.966 440.3 151.106 440.58 154.186 452.06L155.026 455.14H156.286V423.78H155.026L154.186 426.86C151.106 438.34 143.966 438.62 137.666 438.62H129.406V416.5C129.406 397.6 129.826 395.36 135.986 395.36H143.126C156.146 395.36 166.366 396.9 171.686 413.56L173.226 418.32H174.486V393.54H106.726V395.22L109.666 395.36C116.666 395.64 117.926 397.18 117.926 416.5V464.94C117.926 484.26 116.666 485.8 109.666 486.08L106.726 486.22V487.9H177.286ZM244.897 486.22V487.9H211.017V486.22L213.957 486.08C220.957 485.8 222.217 484.26 222.217 464.94V416.22C222.217 397.32 221.797 395.36 215.497 395.36H212.417C205.557 395.36 197.857 396.62 191.557 416.36L190.017 421.12H188.757V393.54H267.157V421.12H265.897L264.357 416.36C257.917 396.62 250.357 395.36 243.497 395.36H240.277C234.117 395.36 233.697 397.32 233.697 416.22V464.94C233.697 484.26 234.957 485.8 241.957 486.08L244.897 486.22ZM352.462 487.9V486.22L351.342 486.08C345.602 485.38 343.782 483.7 335.662 463.68L306.262 392H304.862L279.802 457.38C269.862 483.14 266.782 485.52 260.622 486.08L259.082 486.22V487.9H288.482V486.22L285.542 486.08C279.662 485.8 278.402 481.88 278.402 476.56C278.402 470.68 279.382 464.52 282.042 457.24L285.122 448.98H317.882L324.042 464.66C330.762 481.74 331.742 485.8 323.902 486.08L320.262 486.22V487.9H352.462ZM317.182 447.3H285.822L301.362 406.42L317.182 447.3ZM391.348 486.22V487.9H357.468V486.22L360.408 486.08C367.408 485.8 368.668 484.26 368.668 464.94V416.5C368.668 397.18 367.408 395.64 360.408 395.36L357.468 395.22V393.54H391.348V395.22L388.408 395.36C381.408 395.64 380.148 397.18 380.148 416.5V464.94C380.148 484.26 381.408 485.8 388.408 486.08L391.348 486.22ZM471.248 487.9V454.58H469.988L468.448 459.34C460.608 483.56 454.168 486.08 438.768 486.08H429.248C423.088 486.08 422.668 483.84 422.668 464.94V416.5C422.668 397.18 423.928 395.64 430.788 395.36L433.728 395.22V393.54H399.988V395.22L402.928 395.36C409.928 395.64 411.188 397.18 411.188 416.5V464.94C411.188 484.26 409.928 485.8 402.928 486.08L399.988 486.22V487.9H471.248Z" fill="white"/>
</svg>
